<svg width="345" height="198" viewBox="0 0 345 198" fill="none" xmlns="http://www.w3.org/2000/svg">
<path d="M116.82 142.718C117.157 143.807 117.022 145.248 116.414 147.038C115.874 148.906 115.097 150.775 114.084 152.643C113.138 154.511 112.092 156.224 110.943 157.78C109.795 159.337 108.816 160.388 108.005 160.933C97.603 157.664 87.2348 155.017 76.9004 152.993C66.5659 151.047 56.0626 149.84 45.3905 149.373C43.7018 149.529 42.0132 149.607 40.3246 149.607C38.7035 149.607 37.0149 149.49 35.2587 149.257H34.1442L43.0602 131.975H43.5667C47.4844 131.897 51.4358 131.897 55.421 131.975C57.785 131.664 60.1491 131.197 62.5132 130.574C64.8773 130.029 67.2752 129.328 69.7068 128.472C71.2603 127.927 72.8477 127.421 74.4688 126.954C76.0898 126.487 77.6434 125.825 79.1294 124.969L79.8386 124.619L80.0412 121.233C80.1088 118.742 79.8724 116.212 79.332 113.643C78.7916 110.996 78.2175 108.505 77.6096 106.17C77.3394 105.236 77.0692 104.302 76.7991 103.367C76.5964 102.433 76.3262 101.499 75.9885 100.565C73.4893 98.4632 71.1253 96.4392 68.8963 94.4931C61.1285 87.7985 53.5635 80.9093 46.201 73.8255C38.8386 66.7417 31.6788 59.2686 24.7216 51.4064L17.9333 43.583C15.5017 40.7028 13.1713 37.8615 10.9423 35.0591C8.64581 32.2567 6.45058 29.2597 4.35668 26.0681C3.61368 24.8226 2.76936 23.5381 1.82373 22.2148C0.87809 20.8136 0.337727 19.3346 0.202636 17.7777V18.3615C0.0675455 17.9723 0 17.5831 0 17.1938C0 16.8046 0 16.3765 0 15.9094L0.303956 15.4423C0.439045 14.5861 0.641681 13.7687 0.911863 12.9902C1.1145 12.134 1.38468 11.3944 1.72241 10.7717C1.72241 10.7717 1.92504 10.3046 2.33031 9.37049C2.73559 8.43636 3.24218 7.42439 3.85009 6.33456C4.45799 5.1669 5.13345 4.03816 5.87645 2.94835C6.61944 1.85853 7.32867 1.119 8.00412 0.729783C8.81467 0.262723 9.65899 0.0291938 10.5371 0.0291938C11.4152 -0.048654 12.327 0.0291892 13.2727 0.262723C14.1508 0.496258 15.0288 0.807635 15.9069 1.19686C16.785 1.50823 17.5956 1.8196 18.3386 2.13097C20.9728 3.2208 23.5058 4.62199 25.9374 6.33456C28.369 7.96929 30.7331 9.79863 33.0297 11.8226C35.3938 13.7687 37.6228 15.8316 39.7167 18.0112C41.8781 20.1908 43.972 22.3316 45.9984 24.4333C48.8353 27.3914 51.5709 30.4663 54.2051 33.6579C56.8394 36.8495 59.4061 40.119 61.9053 43.4663C63.729 45.9573 65.519 48.5261 67.2752 51.1728C69.0989 53.7417 70.8213 56.3884 72.4424 59.1129C74.9416 63.2387 77.1706 67.5201 79.1294 71.9572C81.1557 76.3944 82.9457 80.9482 84.4992 85.6189L85.6137 89.3554C88.4506 91.6129 91.2875 93.8315 94.1244 96.0111C96.9613 98.1907 99.8658 100.331 102.838 102.433C106.688 105.158 110.606 107.688 114.591 110.023C118.643 112.358 122.797 114.382 127.053 116.095L129.687 117.263C129.079 115.861 128.404 114.421 127.661 112.942C126.918 111.463 126.208 110.101 125.533 108.855C124.858 107.532 124.216 106.364 123.608 105.352C123 104.34 122.561 103.523 122.291 102.9C116.955 92.7027 111.349 82.8165 105.472 73.2417C99.5956 63.589 93.4152 54.0531 86.9309 44.6339L86.6269 44.2836L92.8073 30.622C92.9424 30.9333 93.2126 31.3226 93.6179 31.7896C95.4416 33.8914 97.3328 35.4483 99.2917 36.4603C101.25 37.4723 103.412 38.5232 105.776 39.613C107.802 40.4693 109.694 41.2866 111.45 42.0651C113.274 42.7657 115.03 43.5441 116.718 44.4004C118.407 45.1788 120.096 46.0351 121.784 46.9692C123.54 47.8255 125.398 48.8375 127.357 50.0052C139.65 57.089 151.031 65.8075 161.501 76.1608C171.97 86.5141 181.19 98.1129 189.161 110.957C191.322 114.46 193.585 118.391 195.949 122.751C198.381 127.032 200.441 131.547 202.129 136.295C203.818 141.044 204.933 145.87 205.473 150.775C206.013 155.679 205.541 160.388 204.055 164.903C203.447 166.694 202.636 168.64 201.623 170.742C200.677 172.843 199.529 174.712 198.178 176.346C196.827 178.059 195.274 179.343 193.517 180.2C191.829 181.056 189.971 181.056 187.945 180.2C187.607 179.966 187.573 179.382 187.844 178.448C188.114 177.514 188.519 176.502 189.059 175.412C189.6 174.4 190.174 173.427 190.782 172.493C191.39 171.637 191.896 171.17 192.302 171.092C194.26 171.792 196.185 171.676 198.077 170.742C198.279 170.586 198.583 170.391 198.989 170.158C199.394 169.924 199.698 169.73 199.9 169.574C200.171 168.562 200.306 167.433 200.306 166.188C200.508 162.529 200.238 158.831 199.495 155.095C198.144 148.789 196.017 142.873 193.112 137.346C190.275 131.819 187.168 126.487 183.791 121.349C175.618 108.816 166.229 97.568 155.624 87.6039C145.087 77.6399 133.638 69.2716 121.278 62.4992C119.319 61.4093 117.461 60.4363 115.705 59.58C113.949 58.7237 112.227 57.9064 110.538 57.1279C111.619 58.8405 112.666 60.5531 113.679 62.2656C114.692 63.9004 115.705 65.6129 116.718 67.4034C118.88 71.1399 120.974 74.8764 123 78.6129C125.094 82.2716 127.12 86.0081 129.079 89.8225L133.031 97.5291C133.638 98.6967 134.381 100.098 135.26 101.733C136.205 103.367 137.016 105.119 137.691 106.987C138.434 108.855 138.941 110.724 139.211 112.592C139.481 114.46 139.245 116.173 138.502 117.73L133.74 127.655C132.186 130.613 129.788 131.975 126.546 131.742C125.465 131.664 124.081 131.275 122.392 130.574C120.771 129.951 119.082 129.212 117.326 128.355C115.57 127.499 113.848 126.643 112.159 125.787C110.538 124.93 109.221 124.191 108.208 123.568C104.763 121.7 101.386 119.676 98.0758 117.496C94.8337 115.239 91.5915 112.903 88.3493 110.49C87.944 116.484 86.1541 122.634 82.9795 128.939C82.1689 130.652 81.1557 132.442 79.9399 134.31C92.2332 136.179 104.526 138.981 116.82 142.718ZM32.0165 37.3944C36.2043 42.2986 40.4597 47.0471 44.7826 51.6399C49.173 56.1549 53.631 60.6309 58.1565 65.068L53.9012 58.8794C49.1055 52.2627 44.0058 45.9573 38.6022 39.9633C33.1985 33.8914 27.4234 28.3645 21.2768 23.3824L18.4399 21.2807C20.6013 24.083 22.8641 26.8465 25.2282 29.5711C27.5247 32.2178 29.7875 34.8255 32.0165 37.3944ZM79.1294 129.056L78.8254 129.757L79.1294 129.289V129.056Z" fill="black"/>
<path d="M194.627 169.224C193.411 170.625 192.533 171.325 191.993 171.325C191.453 171.403 191.554 170.197 192.297 167.706C192.905 165.682 193.682 163.736 194.627 161.867C195.573 160.077 196.62 158.286 197.768 156.496C199.119 154.472 200.47 152.487 201.821 150.541C203.239 148.595 204.725 146.766 206.279 145.053C207.427 143.807 208.609 142.601 209.825 141.433C211.108 140.343 212.425 139.409 213.776 138.631C216.14 137.385 218.471 136.724 220.767 136.646C223.131 136.568 225.428 136.84 227.657 137.463C229.953 138.086 232.216 138.942 234.445 140.032C236.742 141.2 238.971 142.328 241.132 143.418C244.037 144.897 246.907 146.415 249.744 147.972C252.581 149.607 255.418 151.242 258.255 152.876C265.752 157.08 273.25 161.05 280.747 164.786C288.245 168.601 295.844 172.298 303.544 175.879C305.503 176.813 307.462 177.748 309.42 178.682C311.447 179.616 313.439 180.511 315.398 181.367C316.411 181.834 317.83 182.535 319.654 183.469C321.477 184.403 323.436 185.298 325.53 186.155C327.691 187.011 329.819 187.634 331.913 188.023C334.075 188.412 335.966 188.295 337.587 187.673C337.722 187.05 337.958 186.233 338.296 185.221C338.701 184.286 339.14 183.391 339.613 182.535C338.803 176.23 337.384 170.236 335.358 164.553C333.332 158.948 330.832 153.655 327.86 148.673C324.956 143.691 321.612 138.981 317.83 134.544C314.047 130.185 309.995 126.059 305.672 122.167C301.214 118.197 296.654 114.421 291.994 110.84C287.401 107.182 282.808 103.601 278.215 100.098C273.689 96.5171 269.231 92.8973 264.841 89.2387C260.45 85.5021 256.229 81.5321 252.176 77.3285C252.243 80.1309 252.108 82.8943 251.771 85.6189C251.433 88.2656 250.892 90.8345 250.149 93.3255C249.744 94.4931 249.103 96.089 248.224 98.1129C247.414 100.137 246.401 102.122 245.185 104.068C244.037 105.936 242.719 107.532 241.233 108.855C239.815 110.179 238.295 110.724 236.674 110.49C235.323 110.334 233.972 109.712 232.621 108.622C231.271 107.532 230.088 106.52 229.075 105.586C226.644 103.328 224.246 101.032 221.882 98.6967C219.585 96.2836 217.289 93.8315 214.992 91.3405C207.157 83.0111 199.389 74.6429 191.689 66.2357C183.989 57.8285 175.883 49.8884 167.373 42.4154C166.562 41.6369 165.752 40.8974 164.941 40.1968C164.063 39.4962 163.185 38.8345 162.307 38.2118C160.686 36.8106 158.997 35.4094 157.241 34.0082C155.485 32.5291 153.695 31.2447 151.871 30.1549C150.047 29.0651 148.156 28.2088 146.197 27.586C144.171 26.9633 142.077 26.7687 139.915 27.0022C138.632 27.1579 137.416 27.5082 136.268 28.0531C135.052 28.598 134.039 29.4154 133.228 30.5052C132.013 31.9064 131.135 32.6459 130.594 32.7238C130.054 32.7238 130.155 31.4783 130.898 28.9872C131.506 26.9633 132.283 25.0561 133.228 23.2657C134.174 21.3974 135.221 19.5681 136.369 17.7777C137.247 16.5322 138.159 15.3645 139.105 14.2747C139.983 13.107 141.03 12.095 142.246 11.2388C144.812 9.52619 147.413 8.74774 150.047 8.90343C152.614 9.05912 155.147 9.75972 157.646 11.0052C160.145 12.2507 162.543 13.8465 164.84 15.7926C167.136 17.6609 169.264 19.4513 171.223 21.1639C175.883 25.2896 180.409 29.61 184.799 34.125C189.19 38.5621 193.513 43.116 197.768 47.7866C202.023 52.4573 206.211 57.2058 210.331 62.0321C214.519 66.7806 218.707 71.4902 222.895 76.1608C224.111 77.562 225.495 79.1967 227.049 81.065C228.67 82.8554 230.325 84.6848 232.014 86.553C233.77 88.3434 235.526 90.0171 237.282 91.574C239.038 93.1309 240.727 94.2985 242.348 95.077C242.686 95.3105 243.023 95.4662 243.361 95.544C243.766 95.544 244.138 95.544 244.476 95.544C244.543 94.3764 244.543 93.2866 244.476 92.2746C244.476 91.1848 244.476 90.2117 244.476 89.3554C244.341 83.5949 243.665 78.2237 242.449 73.2417C241.301 68.2596 239.646 63.4333 237.485 58.7626C236.404 57.0501 235.357 55.2986 234.344 53.5082C233.331 51.7177 232.351 49.8884 231.406 48.0201L230.798 46.9692L237.789 33.4244L238.194 34.4753L238.295 34.3585C238.903 35.2148 239.41 35.9932 239.815 36.6938C240.288 37.3944 240.727 38.095 241.132 38.7956C241.605 39.4184 242.044 40.119 242.449 40.8974C242.855 41.598 243.327 42.4543 243.868 43.4663L246.097 48.3704C246.84 49.5381 247.616 50.7058 248.427 51.8734C249.238 52.9632 250.082 54.0531 250.96 55.1429C254.135 59.1908 257.512 62.9662 261.092 66.4692C264.739 69.9722 268.454 73.3584 272.237 76.6279C276.019 79.8195 279.869 82.9722 283.787 86.086C287.705 89.1219 291.589 92.1967 295.439 95.3105C300.775 99.6698 305.942 104.263 310.94 109.089C315.939 113.915 320.599 119.131 324.922 124.736C329.38 130.496 333.23 136.763 336.472 143.535C339.715 150.307 342.045 157.469 343.463 165.02C343.936 167.589 344.308 169.691 344.578 171.325C344.916 172.96 345.051 174.439 344.983 175.762C344.916 177.164 344.645 178.565 344.173 179.966C343.7 181.367 342.991 183.119 342.045 185.221C341.91 185.532 341.606 186.038 341.133 186.739C340.728 187.439 340.255 188.023 339.715 188.49C339.579 188.646 339.512 188.801 339.512 188.957C338.634 191.448 337.452 193.55 335.966 195.262C334.277 196.897 332.251 197.792 329.887 197.948C327.59 198.104 325.192 197.909 322.693 197.364C320.262 196.897 317.897 196.197 315.601 195.262C313.304 194.406 311.346 193.745 309.724 193.277C307.631 192.577 305.537 191.876 303.443 191.176C301.349 190.553 299.289 189.813 297.262 188.957C288.346 185.532 279.667 181.601 271.224 177.164C262.78 172.727 254.202 168.445 245.489 164.319C243.53 163.385 241.571 162.451 239.612 161.517C237.654 160.583 235.695 159.688 233.736 158.831C231.507 157.897 229.177 156.885 226.745 155.795C224.313 154.783 221.848 154.005 219.349 153.46C216.85 152.993 214.384 152.915 211.953 153.227C209.521 153.616 207.191 154.745 204.962 156.613C202.8 158.325 200.909 160.271 199.288 162.451C197.734 164.631 196.181 166.888 194.627 169.224Z" fill="black"/>
</svg>
