<svg width="1139" height="350" viewBox="0 0 1139 350" fill="none" xmlns="http://www.w3.org/2000/svg">
<path d="M32.4567 350H0V0H45.8676C58.5648 0 69.4213 7.47464 78.437 22.4239C87.5279 37.3732 92.0733 55.4369 92.0733 76.6151V125.387C92.0733 146.565 87.5279 164.629 78.437 179.578C69.4213 194.528 58.5648 202.002 45.8676 202.002H32.4567V350ZM2.70472 345.515H29.752V197.517H45.8676C57.8135 197.517 68.0313 190.479 76.5212 176.402C85.011 162.324 89.2559 145.319 89.2559 125.387V76.6151C89.2559 56.6827 85.011 39.6779 76.5212 25.6006C68.0313 11.5234 57.8135 4.48478 45.8676 4.48478H2.70472V345.515ZM42.9375 152.67H29.752V49.3326H42.9375C48.2718 49.3326 52.8173 52.5093 56.5738 58.8628C60.4055 65.0917 62.3214 72.5663 62.3214 81.2867V120.529C62.3214 129.374 60.4055 136.973 56.5738 143.326C52.8173 149.555 48.2718 152.67 42.9375 152.67ZM32.4567 147.998H42.9375C47.5205 147.998 51.4273 145.319 54.658 139.963C57.8886 134.606 59.5039 128.128 59.5039 120.529V81.2867C59.5039 73.8121 57.8886 67.3963 54.658 62.0395C51.4273 56.5581 47.5205 53.8174 42.9375 53.8174H32.4567V147.998Z" fill="url(#paint0_linear_13_182)"/>
<path d="M187.383 350C182.124 350 177.015 348.567 172.057 345.702C162.74 340.096 155.302 330.753 149.743 317.672C144.183 304.592 141.403 289.954 141.403 273.759V76.2413C141.403 55.9352 145.873 37.9338 154.814 22.2371C159.773 14.1395 165.52 8.15981 172.057 4.29792C177.015 1.43264 182.124 0 187.383 0C192.642 0 197.751 1.43264 202.71 4.29792C212.026 10.0285 219.464 19.4341 225.024 32.5147C230.659 45.5953 233.476 60.1708 233.476 76.2413V273.759C233.476 294.189 228.968 312.191 219.953 327.763C214.994 335.86 209.247 341.84 202.71 345.702C197.827 348.567 192.718 350 187.383 350ZM187.383 4.48478C182.425 4.48478 177.616 5.85513 172.958 8.59584C166.797 12.2086 161.425 17.8768 156.842 25.6006C148.353 40.1762 144.108 57.0564 144.108 76.2413V273.759C144.108 288.957 146.737 302.723 151.996 315.056C157.256 327.265 164.243 336.047 172.958 341.404C177.616 344.145 182.425 345.515 187.383 345.515C192.342 345.515 197.15 344.145 201.809 341.404C207.969 337.791 213.379 332.185 218.037 324.586C226.452 309.886 230.659 292.944 230.659 273.759V76.2413C230.659 61.0429 228.029 47.3394 222.77 35.1308C217.586 22.7977 210.599 13.9527 201.809 8.59584C197.15 5.85513 192.342 4.48478 187.383 4.48478ZM187.383 300.667C183.026 300.667 179.194 298.051 175.888 292.819C172.733 287.338 171.155 280.984 171.155 273.759V76.2413C171.155 68.8913 172.733 62.6001 175.888 57.3679C179.044 52.011 182.875 49.3326 187.383 49.3326C191.741 49.3326 195.573 51.9487 198.878 57.181C202.034 62.6624 203.612 69.0158 203.612 76.2413V273.759C203.612 281.233 202.034 287.587 198.878 292.819C195.723 298.051 191.891 300.667 187.383 300.667ZM187.383 53.8174C183.702 53.8174 180.509 56.0598 177.804 60.5446C175.174 64.9048 173.86 70.137 173.86 76.2413V273.759C173.86 279.738 175.174 285.033 177.804 289.642C180.584 294.003 183.777 296.183 187.383 296.183C191.14 296.183 194.333 294.003 196.963 289.642C199.592 285.282 200.907 279.988 200.907 273.759V76.2413C200.907 70.2616 199.592 65.0294 196.963 60.5446C194.183 56.0598 190.99 53.8174 187.383 53.8174Z" fill="url(#paint1_linear_13_182)"/>
<path d="M375.33 350H342.648L320.334 202.002H315.375V350H282.806V0H328.786C334.045 0 339.192 1.49493 344.226 4.48478C353.542 10.0908 360.98 19.4964 366.54 32.7015C372.099 45.7822 374.879 60.42 374.879 76.6151V125.387C374.879 134.232 374.015 142.828 372.287 151.175C368.305 168.865 361.356 182.506 351.438 192.098L375.33 350ZM344.789 345.515H371.836L348.283 189.669L349.184 188.922C359.027 179.952 365.864 166.809 369.695 149.493C371.348 141.769 372.175 133.734 372.175 125.387V76.6151C372.175 61.4166 369.545 47.6508 364.286 35.3177C359.027 22.9845 352.039 14.0772 343.324 8.59584C338.591 5.85513 333.745 4.48478 328.786 4.48478H285.623V345.515H312.671V197.517H322.475L344.789 345.515ZM325.856 152.67H312.671V49.3326H325.856C331.04 49.3326 335.473 52.3848 339.154 58.4891C342.911 64.4688 344.902 71.9434 345.127 80.913C345.127 81.0376 345.127 81.1621 345.127 81.2867V120.529C345.127 120.778 345.127 121.027 345.127 121.276C344.902 130.121 342.911 137.596 339.154 143.7C335.473 149.68 331.04 152.67 325.856 152.67ZM315.375 147.998H325.856C330.364 147.998 334.196 145.444 337.351 140.336C340.507 135.104 342.197 128.688 342.423 121.089C342.423 120.84 342.423 120.653 342.423 120.529V81.2867C342.423 81.1621 342.423 81.0998 342.423 81.0998C342.197 73.376 340.469 66.898 337.239 61.6658C334.083 56.4335 330.289 53.8174 325.856 53.8174H315.375V147.998Z" fill="url(#paint2_linear_13_182)"/>
<path d="M486.981 350H454.412V53.8174H424.66V0H516.733V53.8174H486.981V350ZM457.229 345.515H484.164V49.3326H514.028V4.48478H427.364V49.3326H457.229V345.515ZM486.981 350H454.412V53.8174H424.66V0H516.733V53.8174H486.981V350ZM457.229 345.515H484.164V49.3326H514.028V4.48478H427.364V49.3326H457.229V345.515Z" fill="url(#paint3_linear_13_182)"/>
<path d="M598.632 350H566.063V0H633.23V53.8174H598.632V147.998H633.23V202.002H598.632V350ZM568.88 345.515H595.927V197.517H630.413V152.67H595.927V49.3326H630.413V4.48478H568.88V345.515Z" fill="url(#paint4_linear_13_182)"/>
<path d="M728.427 350C723.168 350 718.059 348.567 713.101 345.702C703.784 340.096 696.346 330.753 690.787 317.672C685.227 304.592 682.447 289.954 682.447 273.759V76.2413C682.447 55.9352 686.917 37.9338 695.858 22.2371C700.817 14.1395 706.564 8.15981 713.101 4.29792C718.059 1.43264 723.168 0 728.427 0C733.687 0 738.795 1.43264 743.754 4.29792C753.07 10.0285 760.508 19.4341 766.068 32.5147C771.703 45.5953 774.52 60.1708 774.52 76.2413V273.759C774.52 294.189 770.012 312.191 760.997 327.763C756.038 335.86 750.291 341.84 743.754 345.702C738.871 348.567 733.762 350 728.427 350ZM728.427 4.48478C723.469 4.48478 718.66 5.85513 714.002 8.59584C707.841 12.2086 702.469 17.8768 697.886 25.6006C689.397 40.1762 685.152 57.0564 685.152 76.2413V273.759C685.152 288.957 687.781 302.723 693.041 315.056C698.3 327.265 705.287 336.047 714.002 341.404C718.66 344.145 723.469 345.515 728.427 345.515C733.386 345.515 738.194 344.145 742.853 341.404C749.013 337.791 754.423 332.185 759.081 324.586C767.496 309.886 771.703 292.944 771.703 273.759V76.2413C771.703 61.0429 769.073 47.3394 763.814 35.1308C758.63 22.7977 751.643 13.9527 742.853 8.59584C738.194 5.85513 733.386 4.48478 728.427 4.48478ZM728.427 300.667C724.07 300.667 720.238 298.051 716.932 292.819C713.777 287.338 712.199 280.984 712.199 273.759V76.2413C712.199 68.8913 713.777 62.6001 716.932 57.3679C720.088 52.011 723.919 49.3326 728.427 49.3326C732.785 49.3326 736.617 51.9487 739.922 57.181C743.078 62.6624 744.656 69.0158 744.656 76.2413V273.759C744.656 281.233 743.078 287.587 739.922 292.819C736.767 298.051 732.935 300.667 728.427 300.667ZM728.427 53.8174C724.746 53.8174 721.553 56.0598 718.848 60.5446C716.219 64.9048 714.904 70.137 714.904 76.2413V273.759C714.904 279.738 716.219 285.033 718.848 289.642C721.628 294.003 724.821 296.183 728.427 296.183C732.184 296.183 735.377 294.003 738.007 289.642C740.636 285.282 741.951 279.988 741.951 273.759V76.2413C741.951 70.2616 740.636 65.0294 738.007 60.5446C735.227 56.0598 732.034 53.8174 728.427 53.8174Z" fill="url(#paint5_linear_13_182)"/>
<path d="M915.923 350H823.85V0H856.419V296.183H915.923V350ZM826.667 345.515H913.219V300.667H853.602V4.48478H826.667V345.515Z" fill="url(#paint6_linear_13_182)"/>
<path d="M997.71 350H965.253V0H997.71V350ZM967.958 345.515H995.005V4.48478H967.958V345.515Z" fill="url(#paint7_linear_13_182)"/>
<path d="M1092.91 350C1087.65 350 1082.54 348.567 1077.58 345.702C1068.26 340.096 1060.83 330.753 1055.27 317.672C1049.71 304.592 1046.93 289.954 1046.93 273.759V76.2413C1046.93 55.9352 1051.4 37.9338 1060.34 22.2371C1065.3 14.1395 1071.04 8.15981 1077.58 4.29792C1082.54 1.43264 1087.65 0 1092.91 0C1098.17 0 1103.28 1.43264 1108.23 4.29792C1117.55 10.0285 1124.99 19.4341 1130.55 32.5147C1136.18 45.5953 1139 60.1708 1139 76.2413V273.759C1139 294.189 1134.49 312.191 1125.48 327.763C1120.52 335.86 1114.77 341.84 1108.23 345.702C1103.35 348.567 1098.24 350 1092.91 350ZM1092.91 4.48478C1087.95 4.48478 1083.14 5.85513 1078.48 8.59584C1072.32 12.2086 1066.95 17.8768 1062.37 25.6006C1053.88 40.1762 1049.63 57.0564 1049.63 76.2413V273.759C1049.63 288.957 1052.26 302.723 1057.52 315.056C1062.78 327.265 1069.77 336.047 1078.48 341.404C1083.14 344.145 1087.95 345.515 1092.91 345.515C1097.87 345.515 1102.67 344.145 1107.33 341.404C1113.49 337.791 1118.9 332.185 1123.56 324.586C1131.98 309.886 1136.18 292.944 1136.18 273.759V76.2413C1136.18 61.0429 1133.55 47.3394 1128.29 35.1308C1123.11 22.7977 1116.12 13.9527 1107.33 8.59584C1102.67 5.85513 1097.87 4.48478 1092.91 4.48478ZM1092.91 300.667C1088.55 300.667 1084.72 298.051 1081.41 292.819C1078.26 287.338 1076.68 280.984 1076.68 273.759V76.2413C1076.68 68.8913 1078.26 62.6001 1081.41 57.3679C1084.57 52.011 1088.4 49.3326 1092.91 49.3326C1097.26 49.3326 1101.1 51.9487 1104.4 57.181C1107.56 62.6624 1109.14 69.0158 1109.14 76.2413V273.759C1109.14 281.233 1107.56 287.587 1104.4 292.819C1101.25 298.051 1097.41 300.667 1092.91 300.667ZM1092.91 53.8174C1089.23 53.8174 1086.03 56.0598 1083.33 60.5446C1080.7 64.9048 1079.38 70.137 1079.38 76.2413V273.759C1079.38 279.738 1080.7 285.033 1083.33 289.642C1086.11 294.003 1089.3 296.183 1092.91 296.183C1096.66 296.183 1099.86 294.003 1102.49 289.642C1105.12 285.282 1106.43 279.988 1106.43 273.759V76.2413C1106.43 70.2616 1105.12 65.0294 1102.49 60.5446C1099.71 56.0598 1096.51 53.8174 1092.91 53.8174Z" fill="url(#paint8_linear_13_182)"/>
<defs>
<linearGradient id="paint0_linear_13_182" x1="570.551" y1="-7.11887e-08" x2="569.618" y2="402.694" gradientUnits="userSpaceOnUse">
<stop offset="0.5625"/>
<stop offset="0.697115" stop-color="white" stop-opacity="0"/>
</linearGradient>
<linearGradient id="paint1_linear_13_182" x1="570.551" y1="-7.11887e-08" x2="569.618" y2="402.694" gradientUnits="userSpaceOnUse">
<stop offset="0.5625"/>
<stop offset="0.697115" stop-color="white" stop-opacity="0"/>
</linearGradient>
<linearGradient id="paint2_linear_13_182" x1="570.551" y1="-7.11887e-08" x2="569.618" y2="402.694" gradientUnits="userSpaceOnUse">
<stop offset="0.5625"/>
<stop offset="0.697115" stop-color="white" stop-opacity="0"/>
</linearGradient>
<linearGradient id="paint3_linear_13_182" x1="570.551" y1="-7.11887e-08" x2="569.618" y2="402.694" gradientUnits="userSpaceOnUse">
<stop offset="0.5625"/>
<stop offset="0.697115" stop-color="white" stop-opacity="0"/>
</linearGradient>
<linearGradient id="paint4_linear_13_182" x1="570.551" y1="-7.11887e-08" x2="569.618" y2="402.694" gradientUnits="userSpaceOnUse">
<stop offset="0.5625"/>
<stop offset="0.697115" stop-color="white" stop-opacity="0"/>
</linearGradient>
<linearGradient id="paint5_linear_13_182" x1="570.551" y1="-7.11887e-08" x2="569.618" y2="402.694" gradientUnits="userSpaceOnUse">
<stop offset="0.5625"/>
<stop offset="0.697115" stop-color="white" stop-opacity="0"/>
</linearGradient>
<linearGradient id="paint6_linear_13_182" x1="570.551" y1="-7.11887e-08" x2="569.618" y2="402.694" gradientUnits="userSpaceOnUse">
<stop offset="0.5625"/>
<stop offset="0.697115" stop-color="white" stop-opacity="0"/>
</linearGradient>
<linearGradient id="paint7_linear_13_182" x1="570.551" y1="-7.11887e-08" x2="569.618" y2="402.694" gradientUnits="userSpaceOnUse">
<stop offset="0.5625"/>
<stop offset="0.697115" stop-color="white" stop-opacity="0"/>
</linearGradient>
<linearGradient id="paint8_linear_13_182" x1="570.551" y1="-7.11887e-08" x2="569.618" y2="402.694" gradientUnits="userSpaceOnUse">
<stop offset="0.5625"/>
<stop offset="0.697115" stop-color="white" stop-opacity="0"/>
</linearGradient>
</defs>
</svg>
